<svg xmlns="http://www.w3.org/2000/svg" width="18" height="24" viewBox="0 0 18 24">
  <g fill="#D8D8D8" fill-rule="evenodd" transform="translate(-15 -12)">
    <path fill-rule="nonzero" d="M31,34 L31,20 L33,20 L33,36 L15,36 L15,20 L17,20 L17,34 L31,34 Z M17,34 L31,34 L31,20 L33,20 L33,36 L15,36 L15,20 L17,20 L17,34 Z"/>
    <path d="M25,15.8284271 L25,30.6568542 L23,30.6568542 L23,15.8284271 L21.1715729,17.6568542 L18.3431458,17.6568542 L24,12 L29.6568542,17.6568542 L26.8284271,17.6568542 L25,15.8284271 Z"/>
  </g>
</svg>
