<svg xmlns="http://www.w3.org/2000/svg" width="24" height="24" viewBox="0 0 24 24">
  <g fill="#979797" transform="translate(-12 -12)">
    <path d="M24 14C21.790861 14 20 15.790861 20 18 20 20.209139 21.790861 22 24 22 26.209139 22 28 20.209139 28 18 28 15.790861 26.209139 14 24 14zM24 12C27.3137085 12 30 14.6862915 30 18 30 21.3137085 27.3137085 24 24 24 20.6862915 24 18 21.3137085 18 18 18 14.6862915 20.6862915 12 24 12zM34 36C34 30.4771525 29.5228475 26 24 26 18.4771525 26 14 30.4771525 14 36L12 36C12 29.372583 17.372583 24 24 24 30.627417 24 36 29.372583 36 36L34 36z"/>
  </g>
</svg>
